<svg width="28" height="28" viewBox="0 0 28 28" fill="none" xmlns="http://www.w3.org/2000/svg">
<g clip-path="url(#clip0_362_203)">
<path d="M20.5352 5.38455C18.4157 5.38455 16.2971 5.38815 14.1777 5.38006C13.9448 5.38006 13.8323 5.43311 13.7514 5.675C13.1498 7.46086 11.5213 8.62445 9.67254 8.61546C7.84442 8.60647 6.23032 7.43568 5.63414 5.66331C5.5595 5.4403 5.46238 5.37736 5.23398 5.37916C3.86626 5.39085 2.49765 5.38995 1.12993 5.38275C0.284659 5.37826 -0.244983 4.57435 0.112008 3.84508C0.319729 3.42065 0.67762 3.22911 1.14701 3.23001C2.50394 3.23181 3.86087 3.22552 5.2169 3.23631C5.45429 3.23811 5.5595 3.17516 5.64043 2.93687C6.23482 1.16989 7.85881 0.00270237 9.68963 4.7061e-06C11.5267 -0.00269296 13.1444 1.15461 13.746 2.92338C13.8306 3.17246 13.9421 3.23631 14.1947 3.23631C18.3662 3.22732 22.5368 3.23001 26.7083 3.23091C26.854 3.23091 27.0024 3.22552 27.1435 3.25429C27.684 3.364 28.0554 3.87566 27.9996 4.41609C27.9439 4.95742 27.4942 5.37736 26.9268 5.38095C25.4584 5.38995 23.9891 5.38455 22.5206 5.38455C21.8588 5.38455 21.1979 5.38455 20.5361 5.38455H20.5352ZM11.8487 4.30818C11.8487 3.11941 10.8775 2.15095 9.68873 2.15454C8.51525 2.15814 7.55128 3.11761 7.54319 4.2893C7.53509 5.47897 8.50086 6.45642 9.68603 6.46002C10.8739 6.46452 11.8478 5.49426 11.8487 4.30728V4.30818Z" fill="black"/>
<path d="M7.48792 12.9226C9.60739 12.9226 11.726 12.919 13.8454 12.9271C14.0666 12.9271 14.1718 12.8786 14.2492 12.6493C14.8481 10.8625 16.473 9.69083 18.3173 9.69263C20.1634 9.69443 21.7712 10.8598 22.38 12.6574C22.451 12.8669 22.5409 12.9289 22.7549 12.928C24.1002 12.9181 25.4463 12.9226 26.7915 12.9235C27.5091 12.9235 27.9992 13.357 28.0046 13.99C28.01 14.6375 27.5172 15.0763 26.7781 15.0772C25.4553 15.0781 24.1316 15.0853 22.8089 15.0709C22.5535 15.0682 22.4456 15.1401 22.362 15.3865C21.7613 17.1526 20.1391 18.3117 18.3038 18.3081C16.4739 18.3045 14.8499 17.1355 14.2573 15.3685C14.1763 15.1266 14.0648 15.0727 13.831 15.0727C9.65954 15.079 5.48895 15.0781 1.31746 15.0763C1.16099 15.0763 1.00003 15.0817 0.84896 15.0484C0.30583 14.9288 -0.0538593 14.4162 0.00908632 13.8749C0.0738304 13.321 0.528837 12.9262 1.12862 12.9253C3.24809 12.9217 5.36666 12.9235 7.48612 12.9235L7.48792 12.9226ZM20.4646 14.0044C20.4664 12.8147 19.497 11.8454 18.3083 11.8472C17.1348 11.849 16.1681 12.8066 16.1591 13.9783C16.1501 15.168 17.1132 16.1473 18.2984 16.1535C19.4863 16.1598 20.4628 15.1914 20.4646 14.0053V14.0044Z" fill="black"/>
<path d="M20.5094 24.7702C18.4016 24.7702 16.2929 24.7729 14.1851 24.7657C13.9585 24.7657 13.8371 24.8034 13.7535 25.0525C13.1528 26.8411 11.5279 28.0056 9.68003 27.9993C7.85011 27.993 6.22971 26.824 5.63893 25.0534C5.5553 24.8043 5.4357 24.763 5.2082 24.7648C3.87375 24.7737 2.5393 24.7702 1.20486 24.7684C0.492674 24.7675 0.00349655 24.3241 0.00439577 23.6893C0.00529499 23.0526 0.491775 22.6165 1.20756 22.6156C2.542 22.6138 3.87645 22.6102 5.2109 22.6192C5.4411 22.621 5.5571 22.5734 5.63893 22.327C6.23061 20.5582 7.85191 19.3892 9.68183 19.3838C11.5189 19.3784 13.1438 20.5348 13.7418 22.3009C13.8335 22.5707 13.9648 22.6201 14.2202 22.6192C18.38 22.612 22.5398 22.6138 26.6996 22.6147C26.8453 22.6147 26.9937 22.6084 27.1348 22.6363C27.6753 22.7424 28.0503 23.2523 27.999 23.7927C27.9477 24.334 27.4981 24.7603 26.9334 24.7648C25.6889 24.7746 24.4444 24.7684 23.1998 24.7684C22.3024 24.7684 21.4059 24.7684 20.5085 24.7684L20.5094 24.7702ZM11.849 23.7046C11.8544 22.5149 10.8877 21.541 9.69982 21.5401C8.52453 21.5383 7.55607 22.4933 7.54348 23.6641C7.53089 24.8547 8.49126 25.8375 9.67554 25.8465C10.8643 25.8555 11.8445 24.8906 11.849 23.7055V23.7046Z" fill="black"/>
</g>
<defs>
<clipPath id="clip0_362_203">
<rect width="28.0054" height="28" fill="white"/>
</clipPath>
</defs>
</svg>
