<svg width="31" height="23" viewBox="0 0 31 23" fill="none" xmlns="http://www.w3.org/2000/svg">
<g clip-path="url(#clip0_344_395)">
<path d="M2.17389 22.7096H6.97172V11.148L0.117676 6.04736V20.6693C0.117676 21.7983 1.03954 22.7096 2.17389 22.7096Z" fill="#4285F4"/>
<path d="M23.4209 22.7096H28.2187C29.3565 22.7096 30.2749 21.7949 30.2749 20.6693V6.04736L23.4209 11.148" fill="#34A853"/>
<path d="M23.4209 2.30705V11.1482L30.2749 6.04755V3.32719C30.2749 0.804046 27.3723 -0.634347 25.34 0.878856" fill="#FBBC04"/>
<path d="M6.97168 11.1483V2.30713L15.1965 8.42795L23.4214 2.30713V11.1483L15.1965 17.2691" fill="#EA4335"/>
<path d="M0.117676 3.32719V6.04755L6.97172 11.1482V2.30705L5.05259 0.878856C3.01694 -0.634347 0.117676 0.804046 0.117676 3.32719Z" fill="#C5221F"/>
</g>
<defs>
<clipPath id="clip0_344_395">
<rect width="30.1578" height="22.443" fill="white" transform="translate(0.117676 0.266602)"/>
</clipPath>
</defs>
</svg>
