<svg width="15" height="15" viewBox="0 0 15 15" fill="none" xmlns="http://www.w3.org/2000/svg">
<g id="Group 618">
<path id="Vector" d="M7.25237 0C4.22556 0 3.34033 0.00312334 3.16826 0.0174015C2.54711 0.0690482 2.16059 0.166876 1.7395 0.376586C1.41498 0.537772 1.15905 0.724615 0.906464 0.98653C0.446454 1.46418 0.16766 2.05181 0.066737 2.75033C0.0176693 3.08943 0.00339509 3.15859 0.000495633 4.89071C-0.000619542 5.46808 0.000495633 6.22794 0.000495633 7.24716C0.000495633 10.2723 0.00384116 11.1569 0.0183384 11.3287C0.0685213 11.9333 0.163311 12.3137 0.364043 12.7297C0.747663 13.5262 1.48033 14.1241 2.34348 14.3472C2.64234 14.4241 2.97244 14.4665 3.3962 14.4866C3.57575 14.4944 5.40575 14.5 7.23687 14.5C9.06798 14.5 10.8991 14.4978 11.0742 14.4888C11.5649 14.4658 11.8498 14.4275 12.1648 14.3461C12.5928 14.2363 12.9917 14.0344 13.3336 13.7544C13.6755 13.4745 13.9521 13.1233 14.1443 12.7253C14.3411 12.3192 14.4409 11.9244 14.4861 11.3513C14.4959 11.2264 14.5 9.23449 14.5 7.24526C14.5 5.25569 14.4955 3.26746 14.4857 3.14253C14.44 2.56025 14.3402 2.16871 14.137 1.75487C13.9703 1.4161 13.7852 1.16311 13.5164 0.90443C13.0369 0.446192 12.4503 0.167322 11.7512 0.0664826C11.4125 0.017513 11.3451 0.00301179 9.61208 0H7.25237Z" fill="url(#paint0_radial_12_797)"/>
<path id="Vector_2" d="M7.25237 0C4.22556 0 3.34033 0.00312334 3.16826 0.0174015C2.54711 0.0690482 2.16059 0.166876 1.7395 0.376586C1.41498 0.537772 1.15905 0.724615 0.906464 0.98653C0.446454 1.46418 0.16766 2.05181 0.066737 2.75033C0.0176693 3.08943 0.00339509 3.15859 0.000495633 4.89071C-0.000619542 5.46808 0.000495633 6.22794 0.000495633 7.24716C0.000495633 10.2723 0.00384116 11.1569 0.0183384 11.3287C0.0685213 11.9333 0.163311 12.3137 0.364043 12.7297C0.747663 13.5262 1.48033 14.1241 2.34348 14.3472C2.64234 14.4241 2.97244 14.4665 3.3962 14.4866C3.57575 14.4944 5.40575 14.5 7.23687 14.5C9.06798 14.5 10.8991 14.4978 11.0742 14.4888C11.5649 14.4658 11.8498 14.4275 12.1648 14.3461C12.5928 14.2363 12.9917 14.0344 13.3336 13.7544C13.6755 13.4745 13.9521 13.1233 14.1443 12.7253C14.3411 12.3192 14.4409 11.9244 14.4861 11.3513C14.4959 11.2264 14.5 9.23449 14.5 7.24526C14.5 5.25569 14.4955 3.26746 14.4857 3.14253C14.44 2.56025 14.3402 2.16871 14.137 1.75487C13.9703 1.4161 13.7852 1.16311 13.5164 0.90443C13.0369 0.446192 12.4503 0.167322 11.7512 0.0664826C11.4125 0.017513 11.3451 0.00301179 9.61208 0H7.25237Z" fill="#B2B2B2"/>
<path id="Vector_3" d="M7.24903 1.89636C5.79528 1.89636 5.61284 1.90272 5.04187 1.92871C4.47202 1.95481 4.08304 2.04506 3.74269 2.17746C3.39063 2.31422 3.09199 2.49716 2.79446 2.79488C2.49671 3.09249 2.31382 3.39122 2.17665 3.74326C2.04395 4.08382 1.95362 4.47301 1.92797 5.04279C1.90254 5.61392 1.89585 5.79652 1.89585 7.25066C1.89585 8.7048 1.90232 8.88673 1.92819 9.45786C1.9544 10.0279 2.04462 10.4169 2.17688 10.7574C2.31371 11.1095 2.4966 11.4083 2.79424 11.7059C3.09165 12.0037 3.3903 12.1871 3.74213 12.3239C4.08271 12.4563 4.47179 12.5465 5.04154 12.5726C5.61251 12.5986 5.79484 12.605 7.24847 12.605C8.70232 12.605 8.88421 12.5986 9.45518 12.5726C10.025 12.5465 10.4144 12.4563 10.755 12.3239C11.107 12.1871 11.4052 12.0037 11.7026 11.7059C12.0003 11.4083 12.1832 11.1095 12.3204 10.7575C12.452 10.4169 12.5423 10.0278 12.5691 9.45797C12.5947 8.88685 12.6014 8.7048 12.6014 7.25066C12.6014 5.79652 12.5947 5.61403 12.5691 5.04291C12.5423 4.4729 12.452 4.08382 12.3204 3.74337C12.1832 3.39122 12.0003 3.09249 11.7026 2.79488C11.4048 2.49705 11.1071 2.31411 10.7547 2.17746C10.4134 2.04506 10.0243 1.95481 9.4544 1.92871C8.88343 1.90272 8.70165 1.89636 7.24746 1.89636H7.24903ZM6.76883 2.86125C6.91135 2.86103 7.07037 2.86125 7.24903 2.86125C8.67823 2.86125 8.84763 2.86638 9.41202 2.89204C9.93392 2.91591 10.2172 3.00314 10.4059 3.07643C10.6557 3.17347 10.8338 3.28948 11.021 3.47688C11.2083 3.66428 11.3243 3.84276 11.4216 4.09263C11.4948 4.28114 11.5821 4.56448 11.6059 5.08652C11.6316 5.65095 11.6371 5.82051 11.6371 7.24943C11.6371 8.67836 11.6316 8.84792 11.6059 9.41235C11.582 9.93439 11.4948 10.2177 11.4216 10.4062C11.3245 10.6561 11.2083 10.834 11.021 11.0213C10.8336 11.2087 10.6558 11.3247 10.4059 11.4218C10.2174 11.4954 9.93392 11.5824 9.41202 11.6063C8.84774 11.6319 8.67823 11.6375 7.24903 11.6375C5.81971 11.6375 5.65031 11.6319 5.08603 11.6063C4.56413 11.5822 4.28088 11.4949 4.09208 11.4217C3.84228 11.3246 3.66385 11.2086 3.4765 11.0212C3.28915 10.8338 3.17317 10.6558 3.07593 10.4058C3.00266 10.2173 2.91534 9.93395 2.89159 9.4119C2.86594 8.84747 2.86081 8.67792 2.86081 7.2481C2.86081 5.81827 2.86594 5.64961 2.89159 5.08518C2.91546 4.56314 3.00266 4.27981 3.07593 4.09107C3.17295 3.8412 3.28915 3.66272 3.4765 3.47532C3.66385 3.28792 3.84228 3.17191 4.09208 3.07464C4.28076 3.00102 4.56413 2.91401 5.08603 2.89003C5.57983 2.86772 5.7712 2.86103 6.76883 2.85991V2.86125ZM10.1063 3.75029C9.97927 3.75029 9.85508 3.78798 9.74944 3.85859C9.6438 3.9292 9.56147 4.02956 9.51286 4.14698C9.46425 4.26439 9.45154 4.39359 9.47634 4.51823C9.50115 4.64288 9.56235 4.75736 9.6522 4.84721C9.74206 4.93706 9.85653 4.99824 9.98115 5.023C10.1058 5.04777 10.2349 5.03501 10.3523 4.98635C10.4697 4.93768 10.57 4.85529 10.6405 4.7496C10.7111 4.64391 10.7487 4.51967 10.7487 4.39258C10.7487 4.03786 10.461 3.75007 10.1063 3.75007V3.75029ZM7.24903 4.50101C5.73094 4.50101 4.50012 5.73216 4.50012 7.25066C4.50012 8.76916 5.73094 9.99976 7.24903 9.99976C8.76711 9.99976 9.9976 8.76916 9.9976 7.25066C9.9976 5.73216 8.76711 4.50101 7.24903 4.50101ZM7.24903 5.46589C8.23439 5.46589 9.03331 6.26491 9.03331 7.25066C9.03331 8.2363 8.23439 9.03543 7.24903 9.03543C6.26355 9.03543 5.46475 8.2363 5.46475 7.25066C5.46475 6.26491 6.26355 5.46589 7.24903 5.46589Z" fill="white"/>
</g>
<defs>
<radialGradient id="paint0_radial_12_797" cx="0" cy="0" r="1" gradientUnits="userSpaceOnUse" gradientTransform="translate(3.85158 15.6168) rotate(-90) scale(14.3706 13.3658)">
<stop stop-color="#FFDD55"/>
<stop offset="0.1" stop-color="#FFDD55"/>
<stop offset="0.5" stop-color="#FF543E"/>
<stop offset="1" stop-color="#C837AB"/>
</radialGradient>
</defs>
</svg>
