<svg width="29" height="30" viewBox="0 0 29 30" fill="none" xmlns="http://www.w3.org/2000/svg">
<g clip-path="url(#clip0_326_204)">
<path d="M21.125 30C20.6777 29.8042 20.3887 29.5019 20.4075 28.9747C20.4099 28.9152 20.3315 28.8251 20.2689 28.7954C20.0394 28.6888 19.8013 28.6019 19.5444 28.4985C19.4841 28.5518 19.4136 28.6176 19.3399 28.6787C18.971 28.988 18.458 29.0021 18.1079 28.6779C17.6857 28.2855 17.2777 27.8766 16.886 27.4537C16.7537 27.3111 16.6894 27.1051 16.5751 26.8913H16.2673C11.0861 26.8913 5.90566 26.8913 0.724472 26.8913C0.636748 26.8913 0.548241 26.8944 0.460517 26.8897C0.180114 26.8748 0.00466582 26.7111 -0.000816924 26.4621C-0.00708292 26.1989 0.171498 26.0195 0.466783 26.0133C0.835693 26.0054 1.20539 26.0117 1.60954 26.0117C1.60954 25.8707 1.60954 25.7571 1.60954 25.6436C1.60954 23.5915 1.60954 21.5386 1.60954 19.4865C1.60954 19.3791 1.60406 19.2695 1.62442 19.1653C1.67142 18.9225 1.82337 18.7831 2.07636 18.798C2.32778 18.8129 2.46328 18.9632 2.48365 19.2123C2.49148 19.3094 2.48835 19.4073 2.48835 19.5052C2.48835 21.548 2.48835 23.5907 2.48835 25.6326C2.48835 25.7477 2.48835 25.8629 2.48835 25.9937H4.53106C4.53576 25.8903 4.54438 25.7877 4.54438 25.6851C4.54438 21.1305 4.54438 16.5767 4.54829 12.0221C4.54829 11.8341 4.49347 11.7151 4.35248 11.5756C4.20601 11.4307 4.08696 11.2012 4.06581 10.9976C4.02273 10.5817 4.04231 10.158 4.05563 9.73813C4.06973 9.29716 4.39478 8.9729 4.83418 8.93374C4.91172 8.92669 4.99005 8.9259 5.06837 8.9259C11.0211 8.9259 16.9745 8.92434 22.9272 8.92982C23.1262 8.92982 23.3431 8.96037 23.5209 9.04183C23.8068 9.17419 23.9494 9.4358 23.9548 9.7538C23.9619 10.154 23.9588 10.5551 23.9556 10.9561C23.9533 11.2388 23.8248 11.4542 23.6118 11.6383C23.5374 11.7025 23.47 11.8231 23.47 11.9187C23.4614 13.5314 23.4622 15.1441 23.4685 16.756C23.4685 16.8493 23.5131 16.9675 23.5789 17.0302C23.7888 17.2323 23.9102 17.468 23.8992 17.757C23.893 17.9239 23.9525 18.0132 24.1146 18.0429C24.171 18.0539 24.2274 18.0774 24.2783 18.1048C24.5689 18.2583 24.8438 18.3883 25.1109 18.0421C25.183 17.9489 25.3537 17.9317 25.5182 17.8636C25.5182 17.7954 25.5182 17.7006 25.5182 17.6059C25.5182 14.5567 25.5166 11.5075 25.5221 8.4583C25.5221 8.26328 25.4704 8.14501 25.2973 8.03378C21.7077 5.72477 18.122 3.41027 14.5402 1.0895C14.3467 0.964179 14.2159 0.964179 14.0209 1.0848C10.266 3.40557 6.50798 5.72085 2.74447 8.02674C2.53769 8.15362 2.48287 8.29147 2.48287 8.51705C2.48913 11.332 2.48756 14.1463 2.48678 16.9613C2.48678 17.4343 2.36538 17.6215 2.05913 17.6262C1.74504 17.6309 1.60719 17.4249 1.60719 16.9487C1.60719 14.0366 1.61189 11.1237 1.60093 8.21158C1.59936 7.84659 1.7192 7.62101 2.03328 7.42833C6.00044 5.00574 9.95819 2.56749 13.9128 0.12532C14.1815 -0.0407289 14.3976 -0.0438619 14.664 0.128453C18.4596 2.5855 22.2599 5.03707 26.0618 7.48473C26.3132 7.64608 26.4041 7.84737 26.4033 8.14109C26.3962 11.4347 26.4009 14.7282 26.3947 18.0218C26.3947 18.2223 26.4401 18.3711 26.5913 18.509C26.8576 18.7533 27.1098 19.0134 27.362 19.2726C27.781 19.7034 27.7842 20.1961 27.3972 20.6605C27.3361 20.7334 27.344 20.872 27.3393 20.9809C27.3369 21.0334 27.3886 21.0858 27.4051 21.1415C27.5014 21.4712 27.622 21.7046 28.0606 21.7077C28.4491 21.7109 28.7468 22.126 28.7562 22.5309C28.7703 23.1074 28.771 23.6839 28.7577 24.2604C28.746 24.7538 28.3771 25.1243 27.8758 25.1352C27.6588 25.1399 27.5539 25.2128 27.51 25.4133C27.4959 25.4791 27.4716 25.5472 27.4348 25.6036C27.2696 25.8605 27.2766 26.061 27.503 26.3125C27.7983 26.6414 27.7466 27.1294 27.4309 27.4623C27.0409 27.8735 26.6414 28.2761 26.2271 28.663C25.8581 29.0076 25.3224 29.0021 24.9558 28.6473C24.8039 28.5001 24.6856 28.4946 24.5274 28.5949C24.4867 28.6207 24.4405 28.6418 24.3935 28.6536C24.0676 28.7358 23.8765 28.88 23.864 29.2771C23.8522 29.6632 23.517 29.8606 23.1771 29.9984H21.1242L21.125 30ZM7.40245 25.9992C7.40245 25.8715 7.40245 25.7658 7.40245 25.66C7.40245 24.0967 7.4001 22.5325 7.40402 20.9691C7.4048 20.4436 7.69774 20.1538 8.22173 20.1506C8.92587 20.1467 9.62923 20.1506 10.3334 20.1491C10.4266 20.1491 10.5206 20.1405 10.6271 20.135C10.6271 19.9995 10.6271 19.893 10.6271 19.7864C10.6271 18.2427 10.6263 16.6981 10.6271 15.1543C10.6271 14.5716 10.9067 14.2888 11.4863 14.288C13.3536 14.2865 15.2201 14.2865 17.0873 14.288C17.6661 14.288 17.9512 14.5731 17.9528 15.1512C17.9552 16.0895 17.9528 17.0278 17.9544 17.9654C17.9544 18.0461 17.9653 18.1275 17.9724 18.2239C18.5802 17.779 18.8645 17.7876 19.4559 18.2411C19.4966 18.2724 19.5655 18.3108 19.6023 18.2967C19.8483 18.2043 20.0926 18.1032 20.3308 17.9912C20.3746 17.9709 20.4059 17.8871 20.413 17.8291C20.4976 17.0787 20.7968 16.8093 21.5558 16.8085C21.8933 16.8085 22.2309 16.8085 22.5646 16.8085V11.8051C22.4267 11.8051 22.31 11.8051 22.1933 11.8051C19.9258 11.8051 17.6575 11.8051 15.39 11.8051C15.0242 11.8051 14.8136 11.6414 14.8096 11.3673C14.8057 11.0908 15.0117 10.931 15.3798 10.9263C15.4582 10.9255 15.5365 10.9263 15.6148 10.9263C17.9802 10.9263 20.3456 10.9263 22.7111 10.9263H23.0557V9.82977H4.94697V10.9263H5.30726C7.80974 10.9263 10.3122 10.9263 12.8139 10.9263C12.9408 10.9263 13.0685 10.9224 13.1954 10.9295C13.4742 10.9459 13.6504 11.1182 13.6496 11.3642C13.6489 11.5952 13.4773 11.7738 13.2212 11.8012C13.1249 11.8114 13.0262 11.8059 12.9283 11.8059C10.5527 11.8059 8.17787 11.8059 5.80227 11.8059H5.44433V25.9992H7.40245ZM27.8687 22.5482C27.6956 22.5482 27.5594 22.549 27.4231 22.5482C27.0369 22.545 26.9375 22.455 26.8098 22.0955C26.686 21.7469 26.5458 21.4031 26.3861 21.0702C26.2161 20.7146 26.2153 20.5853 26.4894 20.319C26.5991 20.2125 26.7307 20.1295 26.8192 20.0606C26.3657 19.5992 25.9772 19.2053 25.5104 18.7306C25.4297 18.8458 25.3545 18.9867 25.2472 19.098C24.9872 19.3682 24.865 19.3658 24.5211 19.2053C24.1601 19.0369 23.7904 18.8826 23.4136 18.7525C23.1536 18.6625 23.0267 18.5058 23.0267 18.238C23.0267 18.0656 23.0267 17.8933 23.0267 17.7077H21.2949C21.2949 17.8972 21.2949 18.0703 21.2949 18.2442C21.2949 18.4996 21.1735 18.6546 20.9292 18.7455C20.5195 18.899 20.1154 19.069 19.7159 19.2491C19.4903 19.3509 19.2969 19.3368 19.1285 19.1598C19.0024 19.0275 18.8927 18.8786 18.8152 18.7854C18.3609 19.2413 17.9661 19.6376 17.5322 20.0731C17.6262 20.1522 17.757 20.2548 17.8784 20.3676C18.0672 20.5415 18.0914 20.7373 17.9834 20.9762C17.8024 21.3741 17.6387 21.7806 17.4805 22.1894C17.3928 22.4166 17.2463 22.5435 17.002 22.5474C16.8195 22.5505 16.637 22.5474 16.4474 22.5474V24.2682C16.6393 24.2682 16.8132 24.2674 16.9863 24.2682C17.2432 24.2698 17.3944 24.3982 17.4852 24.6402C17.6356 25.0405 17.7954 25.4391 17.9763 25.8261C18.093 26.0767 18.0617 26.2733 17.8698 26.4613C17.7476 26.5811 17.6317 26.7088 17.5549 26.7902C17.9685 27.2085 18.3578 27.6017 18.8105 28.0591C18.8817 27.9612 18.9562 27.8304 19.0572 27.727C19.3321 27.445 19.4449 27.4466 19.8083 27.6174C20.1514 27.7787 20.5015 27.9338 20.8618 28.0489C21.1594 28.1445 21.3051 28.309 21.2942 28.6191C21.2887 28.7805 21.2934 28.9418 21.2934 29.1H23.0243C23.0243 28.9348 23.0228 28.7899 23.0243 28.6442C23.0298 28.2659 23.1121 28.1774 23.4598 28.0497C23.8342 27.9126 24.2047 27.7599 24.5627 27.5852C24.8211 27.4591 25.0263 27.4819 25.2237 27.6847C25.3428 27.8069 25.4704 27.9205 25.5597 28.0043C25.978 27.586 26.3688 27.196 26.7996 26.766C26.6915 26.6712 26.5576 26.5584 26.4291 26.4394C26.2372 26.2608 26.2341 26.0603 26.3391 25.8276C26.5145 25.4376 26.679 25.0413 26.8294 24.641C26.9249 24.3865 27.0886 24.2627 27.3573 24.2674C27.5272 24.2705 27.698 24.2674 27.8672 24.2674V22.5474L27.8687 22.5482ZM9.86342 21.0545H8.30632V25.9945H13.8274V21.0475H12.268C12.268 21.5699 12.2719 22.0751 12.2664 22.5811C12.2633 22.9249 12.1066 23.0823 11.7644 23.087C11.325 23.0925 10.8856 23.0902 10.4454 23.0886C10.0052 23.087 9.8642 22.9484 9.86264 22.5153C9.86107 22.0367 9.86264 21.5589 9.86264 21.0561L9.86342 21.0545ZM15.4926 15.1778C15.4926 15.6846 15.4934 16.1616 15.4926 16.6386C15.4911 17.0889 15.3524 17.2252 14.8942 17.2268C14.4838 17.2283 14.0742 17.2283 13.6637 17.2268C13.2251 17.2244 13.0888 17.0881 13.0873 16.6495C13.0857 16.1647 13.0873 15.6799 13.0873 15.1919H11.5216V20.1381H16.6424C16.6041 19.7747 16.7325 19.4865 16.9824 19.2342C17.0505 19.1653 17.0693 19.0243 17.0701 18.9155C17.0764 17.7633 17.074 16.6111 17.0732 15.459C17.0732 15.3666 17.0654 15.2734 17.0607 15.1786H15.4926V15.1778ZM16.9369 21.0514H14.7446V26.0125H17.0521C16.9526 25.7689 16.8578 25.5668 16.7881 25.3561C16.738 25.2065 16.6675 25.147 16.4999 25.1407C15.8991 25.1172 15.5553 24.7475 15.5522 24.146C15.549 23.6479 15.5482 23.1497 15.5522 22.6516C15.5569 22.0586 15.914 21.6889 16.5148 21.6725C16.6691 21.6686 16.7427 21.6192 16.7834 21.4759C16.8226 21.3373 16.8813 21.2041 16.9377 21.0506L16.9369 21.0514ZM13.9833 16.3268H14.5919V15.1833H13.9833V16.3268ZM11.3673 22.1949V21.0443H10.7595V22.1949H11.3673Z" fill="black"/>
<path d="M14.2644 4.42295C14.5284 4.42295 14.7923 4.4159 15.0555 4.4253C15.3218 4.4347 15.4878 4.59683 15.4988 4.83494C15.5098 5.07539 15.3555 5.28061 15.0993 5.28922C14.5534 5.30802 14.0051 5.30724 13.4592 5.29235C13.2086 5.2853 13.0355 5.07696 13.0386 4.84982C13.0425 4.61014 13.2289 4.43861 13.5023 4.42216C13.5219 4.42138 13.5415 4.42138 13.561 4.42138C13.7952 4.42138 14.0302 4.42138 14.2644 4.42138V4.42295Z" fill="black"/>
<path d="M14.2644 6.1821C14.5284 6.1821 14.7923 6.17505 15.0555 6.18445C15.3218 6.19385 15.4878 6.3552 15.4988 6.59409C15.5098 6.83455 15.3562 7.03898 15.0993 7.04759C14.5534 7.06717 14.0059 7.06639 13.4592 7.05073C13.207 7.04368 13.0355 6.83533 13.0386 6.60819C13.0425 6.36852 13.2297 6.1962 13.5031 6.18132C13.5227 6.18054 13.5422 6.18132 13.5618 6.18132C13.796 6.18132 14.031 6.18132 14.2652 6.18132V6.18289L14.2644 6.1821Z" fill="black"/>
<path d="M24.7802 23.4159C24.774 24.8728 23.6022 26.0296 22.1423 26.0218C20.687 26.014 19.5278 24.8391 19.5372 23.3822C19.5466 21.9348 20.7285 20.7803 22.1908 20.7905C23.6273 20.7999 24.7873 21.9755 24.7802 23.4167V23.4159ZM22.1736 25.1422C23.1346 25.1367 23.9006 24.3668 23.9006 23.4057C23.9006 22.4345 23.1197 21.663 22.1438 21.6693C21.1851 21.6755 20.4168 22.4486 20.4168 23.4073C20.4168 24.3778 21.1969 25.1477 22.1744 25.1422H22.1736Z" fill="black"/>
</g>
<defs>
<clipPath id="clip0_326_204">
<rect width="28.768" height="30" fill="white"/>
</clipPath>
</defs>
</svg>
