<svg width="17" height="16" viewBox="0 0 17 16" fill="none" xmlns="http://www.w3.org/2000/svg">
<path fill-rule="evenodd" clip-rule="evenodd" d="M5.86672 5.31697H9.08693V6.99601L9.13347 6.99611C9.58195 6.1778 10.6785 5.31707 12.3136 5.31707C15.714 5.31697 16.3429 7.46926 16.3429 10.2691V15.9725L12.9846 15.9726V10.9168C12.9846 9.71151 12.96 8.16002 11.2384 8.16002C9.48984 8.16002 9.22192 9.47198 9.22192 10.829V15.9727H5.86672V5.31707V5.31697ZM3.53858 2.35711C3.53858 3.33753 2.75632 4.13312 1.79238 4.13312C0.828448 4.13312 0.0458984 3.33748 0.0458984 2.35711C0.0458984 1.37669 0.828448 0.581055 1.79238 0.581055C2.75632 0.581055 3.53858 1.37669 3.53858 2.35711ZM0.0458984 5.31697H3.53858V15.9726H0.0458984V5.31697Z" fill="white"/>
</svg>
